<svg width="220" height="78" viewBox="0 0 220 78" fill="none" xmlns="http://www.w3.org/2000/svg">
<g filter="url(#filter0_d_122_1624)">
<path d="M208.889 54.1145C208.889 57.1935 206.343 59.6876 203.194 59.6876H16.8138C13.6661 59.6876 11.1111 57.1935 11.1111 54.1145V9.67056C11.1111 6.59297 13.6661 4.09015 16.8138 4.09015H203.192C206.343 4.09015 208.887 6.59297 208.887 9.67056L208.889 54.1145Z" fill="black"/>
<path d="M202.593 4.15736C206.022 4.15736 208.813 6.87833 208.813 10.2222V53.5555C208.813 56.8994 206.022 59.6204 202.593 59.6204H17.4074C13.9778 59.6204 11.187 56.8994 11.187 53.5555V10.2222C11.187 6.87833 13.9778 4.15736 17.4074 4.15736H202.593ZM202.593 3H17.4074C13.3352 3 10 6.2518 10 10.2222V53.5555C10 57.526 13.3352 60.7778 17.4074 60.7778H202.593C206.665 60.7778 210 57.526 210 53.5555V10.2222C210 6.2518 206.665 3 202.593 3Z" fill="#A6A6A6"/>
<path d="M54.6341 31.5769C54.5911 26.9214 58.5437 24.6565 58.7244 24.5511C56.4859 21.369 53.0163 20.9342 51.797 20.8995C48.883 20.6005 46.0563 22.5997 44.5719 22.5997C43.0578 22.5997 40.7719 20.9284 38.3082 20.9775C35.1378 21.0252 32.1719 22.8149 30.5452 25.594C27.1882 31.2605 29.6919 39.5878 32.9082 44.1681C34.517 46.4113 36.397 48.916 38.8578 48.8279C41.2652 48.7311 42.1644 47.3314 45.0696 47.3314C47.9482 47.3314 48.7926 48.8279 51.3022 48.7715C53.8859 48.7311 55.5126 46.5182 57.0652 44.2548C58.9244 41.6837 59.6711 39.1515 59.7007 39.0215C59.64 39.0013 54.683 37.1568 54.6341 31.5769Z" fill="white"/>
<path d="M49.8933 17.8864C51.1882 16.3077 52.0741 14.1598 51.8282 11.9801C49.9541 12.061 47.6104 13.244 46.2607 14.7881C45.0667 16.1488 44 18.379 44.2756 20.4763C46.3807 20.6294 48.5422 19.4407 49.8933 17.8864Z" fill="white"/>
<path d="M82.6667 17.4574C82.6667 19.1576 82.1437 20.4373 81.0993 21.2968C80.1319 22.0898 78.7571 22.487 76.9763 22.487C76.0934 22.487 75.3378 22.4495 74.7052 22.3743V13.0851C75.5304 12.9551 76.4193 12.8887 77.3793 12.8887C79.0756 12.8887 80.3541 13.2483 81.2163 13.9677C82.1822 14.7809 82.6667 15.9437 82.6667 17.4574ZM81.0296 17.4993C81.0296 16.3972 80.7304 15.5522 80.1319 14.9629C79.5334 14.375 78.6593 14.0803 77.5082 14.0803C77.0193 14.0803 76.603 14.1121 76.2578 14.1786V21.2404C76.4489 21.2693 76.7985 21.2823 77.3067 21.2823C78.4948 21.2823 79.4119 20.9602 80.0578 20.316C80.7037 19.6718 81.0296 18.7329 81.0296 17.4993Z" fill="white"/>
<path d="M91.3467 18.9423C91.3467 19.9896 91.04 20.8476 90.4267 21.5207C89.7837 22.2126 88.9319 22.5578 87.8682 22.5578C86.843 22.5578 86.0267 22.227 85.4178 21.5626C84.8104 20.8996 84.5067 20.0632 84.5067 19.055C84.5067 18.0006 84.8193 17.1353 85.4474 16.4637C86.0756 15.792 86.92 15.4554 87.9837 15.4554C89.0089 15.4554 89.8326 15.7862 90.4563 16.4492C91.0489 17.0934 91.3467 17.9254 91.3467 18.9423ZM89.7363 18.9914C89.7363 18.3631 89.5971 17.8243 89.32 17.3751C88.9941 16.832 88.5304 16.5604 87.9274 16.5604C87.3037 16.5604 86.8296 16.832 86.5037 17.3751C86.2252 17.8243 86.0874 18.3718 86.0874 19.0189C86.0874 19.6472 86.2267 20.186 86.5037 20.6352C86.84 21.1783 87.3082 21.4499 87.9126 21.4499C88.5052 21.4499 88.9704 21.174 89.3052 20.6208C89.5926 20.1629 89.7363 19.6198 89.7363 18.9914Z" fill="white"/>
<path d="M102.985 15.5941L100.8 22.4032H99.3778L98.4726 19.4464C98.243 18.7083 98.0563 17.9745 97.9111 17.2465H97.883C97.7482 17.9948 97.5615 18.7271 97.3215 19.4464L96.36 22.4032H94.9215L92.8667 15.5941H94.4622L95.2519 18.8311C95.443 19.5967 95.6 20.3261 95.7259 21.0165H95.7541C95.8696 20.4474 96.0608 19.7223 96.3304 18.8455L97.3215 15.5955H98.5867L99.5363 18.7762C99.7659 19.5519 99.9526 20.2987 100.096 21.018H100.139C100.244 20.3174 100.403 19.5707 100.613 18.7762L101.461 15.5955H102.985V15.5941Z" fill="white"/>
<path d="M111.034 22.4032H109.482V18.5032C109.482 17.3015 109.013 16.7006 108.074 16.7006C107.613 16.7006 107.242 16.8652 106.953 17.196C106.667 17.5268 106.522 17.9168 106.522 18.3631V22.4018H104.969V17.5398C104.969 16.9418 104.95 16.2932 104.913 15.5912H106.277L106.35 16.6558H106.393C106.573 16.325 106.843 16.052 107.197 15.8339C107.618 15.5797 108.089 15.4511 108.604 15.4511C109.256 15.4511 109.799 15.6562 110.23 16.0679C110.766 16.572 111.034 17.3246 111.034 18.3241V22.4032Z" fill="white"/>
<path d="M115.316 22.4032H113.764V12.4698H115.316V22.4032Z" fill="white"/>
<path d="M124.456 18.9423C124.456 19.9896 124.15 20.8476 123.536 21.5207C122.893 22.2126 122.04 22.5578 120.978 22.5578C119.951 22.5578 119.135 22.227 118.527 21.5626C117.92 20.8996 117.616 20.0632 117.616 19.055C117.616 18.0006 117.929 17.1353 118.557 16.4637C119.185 15.792 120.03 15.4554 121.092 15.4554C122.119 15.4554 122.941 15.7862 123.566 16.4492C124.159 17.0934 124.456 17.9254 124.456 18.9423ZM122.844 18.9914C122.844 18.3631 122.705 17.8243 122.428 17.3751C122.104 16.832 121.639 16.5604 121.037 16.5604C120.412 16.5604 119.938 16.832 119.613 17.3751C119.335 17.8243 119.197 18.3718 119.197 19.0189C119.197 19.6472 119.336 20.186 119.613 20.6352C119.95 21.1783 120.418 21.4499 121.022 21.4499C121.615 21.4499 122.079 21.174 122.413 20.6208C122.702 20.1629 122.844 19.6198 122.844 18.9914Z" fill="white"/>
<path d="M131.97 22.4032H130.576L130.461 21.6189H130.418C129.941 22.2443 129.261 22.5578 128.378 22.5578C127.719 22.5578 127.185 22.3512 126.784 21.941C126.419 21.5683 126.237 21.1047 126.237 20.5543C126.237 19.7223 126.593 19.0882 127.308 18.6491C128.022 18.21 129.027 17.9948 130.32 18.0049V17.8778C130.32 16.9808 129.837 16.533 128.87 16.533C128.181 16.533 127.573 16.702 127.049 17.0371L126.733 16.0433C127.382 15.6519 128.184 15.4554 129.129 15.4554C130.954 15.4554 131.87 16.3943 131.87 18.2721V20.7797C131.87 21.46 131.904 22.0017 131.97 22.4032ZM130.359 20.0632V19.0131C128.646 18.9842 127.79 19.4421 127.79 20.3853C127.79 20.7407 127.887 21.0064 128.087 21.1841C128.287 21.3618 128.542 21.4499 128.846 21.4499C129.187 21.4499 129.505 21.3444 129.796 21.135C130.087 20.9241 130.267 20.6569 130.333 20.329C130.35 20.2553 130.359 20.1658 130.359 20.0632Z" fill="white"/>
<path d="M140.793 22.4032H139.415L139.342 21.3098H139.299C138.859 22.1418 138.11 22.5578 137.056 22.5578C136.215 22.5578 135.514 22.2357 134.959 21.5914C134.403 20.9472 134.126 20.1109 134.126 19.0839C134.126 17.9818 134.427 17.0891 135.031 16.4073C135.616 15.7718 136.333 15.454 137.187 15.454C138.124 15.454 138.781 15.7617 139.154 16.3784H139.184V12.4698H140.738V20.5688C140.738 21.2318 140.756 21.8428 140.793 22.4032ZM139.184 19.5317V18.3963C139.184 18.1999 139.169 18.041 139.141 17.9197C139.053 17.5557 138.865 17.2494 138.579 17.0024C138.29 16.7554 137.942 16.6312 137.541 16.6312C136.962 16.6312 136.508 16.8551 136.175 17.3043C135.844 17.7535 135.677 18.327 135.677 19.0275C135.677 19.7007 135.836 20.2467 136.154 20.667C136.49 21.1148 136.944 21.3387 137.511 21.3387C138.021 21.3387 138.428 21.1523 138.738 20.7782C139.037 20.433 139.184 20.017 139.184 19.5317Z" fill="white"/>
<path d="M154.071 18.9423C154.071 19.9896 153.764 20.8476 153.151 21.5207C152.508 22.2126 151.658 22.5578 150.593 22.5578C149.569 22.5578 148.753 22.227 148.142 21.5626C147.535 20.8996 147.231 20.0632 147.231 19.055C147.231 18.0006 147.544 17.1353 148.172 16.4637C148.8 15.792 149.644 15.4554 150.71 15.4554C151.733 15.4554 152.559 15.7862 153.181 16.4492C153.773 17.0934 154.071 17.9254 154.071 18.9423ZM152.462 18.9914C152.462 18.3631 152.323 17.8243 152.046 17.3751C151.719 16.832 151.256 16.5604 150.652 16.5604C150.03 16.5604 149.556 16.832 149.228 17.3751C148.95 17.8243 148.812 18.3718 148.812 19.0189C148.812 19.6472 148.951 20.186 149.228 20.6352C149.564 21.1783 150.033 21.4499 150.637 21.4499C151.23 21.4499 151.696 21.174 152.031 20.6208C152.317 20.1629 152.462 19.6198 152.462 18.9914Z" fill="white"/>
<path d="M162.419 22.4032H160.868V18.5032C160.868 17.3015 160.4 16.7006 159.459 16.7006C158.999 16.7006 158.627 16.8652 158.339 17.196C158.052 17.5268 157.908 17.9168 157.908 18.3631V22.4018H156.354V17.5398C156.354 16.9418 156.336 16.2932 156.299 15.5912H157.662L157.735 16.6558H157.778C157.96 16.325 158.23 16.052 158.582 15.8339C159.004 15.5797 159.474 15.4511 159.991 15.4511C160.642 15.4511 161.184 15.6562 161.615 16.0679C162.153 16.572 162.419 17.3246 162.419 18.3241V22.4032Z" fill="white"/>
<path d="M172.868 16.728H171.159V20.0358C171.159 20.8765 171.462 21.2968 172.064 21.2968C172.342 21.2968 172.573 21.2737 172.756 21.226L172.796 22.3743C172.489 22.487 172.086 22.5433 171.59 22.5433C170.976 22.5433 170.499 22.3613 170.154 21.9973C169.807 21.6333 169.636 21.0209 169.636 20.1615V16.728H168.615V15.5941H169.636V14.3461L171.157 13.8983V15.5927H172.867V16.728H172.868Z" fill="white"/>
<path d="M181.087 22.4032H179.533V18.5321C179.533 17.3116 179.065 16.7006 178.127 16.7006C177.407 16.7006 176.916 17.0544 176.646 17.7622C176.6 17.911 176.573 18.093 176.573 18.3068V22.4018H175.022V12.4698H176.573V16.5734H176.603C177.092 15.8267 177.793 15.454 178.701 15.454C179.344 15.454 179.876 15.6591 180.298 16.0708C180.824 16.5835 181.087 17.3462 181.087 18.3544V22.4032Z" fill="white"/>
<path d="M189.566 18.6766C189.566 18.9481 189.545 19.1763 189.508 19.3627H184.852C184.873 20.0358 185.095 20.5486 185.526 20.9039C185.92 21.2217 186.428 21.3806 187.05 21.3806C187.739 21.3806 188.367 21.2737 188.933 21.0584L189.176 22.11C188.514 22.3902 187.735 22.5303 186.833 22.5303C185.751 22.5303 184.899 22.2198 184.283 21.5987C183.664 20.9776 183.357 20.1441 183.357 19.0983C183.357 18.0713 183.643 17.2162 184.219 16.5344C184.821 15.8064 185.634 15.4424 186.661 15.4424C187.665 15.4424 188.428 15.8064 188.944 16.5344C189.36 17.1122 189.566 17.8272 189.566 18.6766ZM188.084 18.2851C188.096 17.8359 187.994 17.4488 187.784 17.1223C187.514 16.702 187.104 16.4911 186.548 16.4911C186.041 16.4911 185.628 16.6962 185.313 17.1079C185.055 17.4358 184.902 17.8272 184.852 18.2851H188.084Z" fill="white"/>
<path d="M89.4741 48.5058H86.1096L84.2667 42.8594H77.8607L76.1052 48.5058H72.8296L79.1763 29.2831H83.0963L89.4741 48.5058ZM83.7111 40.4905L82.0444 35.4711C81.8681 34.9583 81.5378 33.7507 81.0504 31.8499H80.9911C80.797 32.6674 80.4844 33.875 80.0548 35.4711L78.4178 40.4905H83.7111Z" fill="white"/>
<path d="M105.796 41.4049C105.796 43.7622 105.142 45.6256 103.836 46.9934C102.665 48.2111 101.212 48.8192 99.477 48.8192C97.6044 48.8192 96.2592 48.1634 95.44 46.8519H95.3807V54.1536H92.2222V39.2079C92.2222 37.7259 92.1822 36.2049 92.1052 34.6449H94.8829L95.0592 36.8419H95.1185C96.1718 35.1866 97.7703 34.3603 99.9155 34.3603C101.593 34.3603 102.993 35.006 104.113 36.2988C105.236 37.593 105.796 39.2946 105.796 41.4049ZM102.578 41.5176C102.578 40.1684 102.267 39.0562 101.641 38.1809C100.958 37.268 100.041 36.8116 98.8918 36.8116C98.1126 36.8116 97.4044 37.0658 96.7718 37.567C96.1378 38.0726 95.7229 38.7327 95.5289 39.5502C95.4311 39.9316 95.3822 40.2436 95.3822 40.4891V42.8002C95.3822 43.8084 95.6992 44.6592 96.3333 45.354C96.9674 46.0488 97.7911 46.3954 98.8044 46.3954C99.994 46.3954 100.92 45.9477 101.582 45.055C102.246 44.1609 102.578 42.9822 102.578 41.5176Z" fill="white"/>
<path d="M122.147 41.4049C122.147 43.7622 121.493 45.6256 120.185 46.9934C119.016 48.2111 117.563 48.8192 115.828 48.8192C113.956 48.8192 112.61 48.1634 111.793 46.8519H111.733V54.1536H108.575V39.2079C108.575 37.7259 108.535 36.2049 108.458 34.6449H111.236L111.412 36.8419H111.471C112.523 35.1866 114.121 34.3603 116.268 34.3603C117.944 34.3603 119.344 35.006 120.467 36.2988C121.585 37.593 122.147 39.2946 122.147 41.4049ZM118.929 41.5176C118.929 40.1684 118.616 39.0562 117.991 38.1809C117.308 37.268 116.394 36.8116 115.243 36.8116C114.462 36.8116 113.756 37.0658 113.121 37.567C112.487 38.0726 112.074 38.7327 111.88 39.5502C111.784 39.9316 111.733 40.2436 111.733 40.4891V42.8002C111.733 43.8084 112.05 44.6592 112.681 45.354C113.316 46.0473 114.139 46.3954 115.156 46.3954C116.345 46.3954 117.271 45.9477 117.933 45.055C118.597 44.1609 118.929 42.9822 118.929 41.5176Z" fill="white"/>
<path d="M140.428 43.1151C140.428 44.7502 139.846 46.0805 138.677 47.1075C137.393 48.2299 135.604 48.7903 133.307 48.7903C131.185 48.7903 129.484 48.3917 128.197 47.5929L128.929 45.0261C130.316 45.8437 131.837 46.2539 133.495 46.2539C134.684 46.2539 135.61 45.991 136.276 45.4681C136.938 44.9452 137.268 44.2432 137.268 43.3679C137.268 42.5879 136.996 41.9307 136.449 41.3977C135.905 40.8647 134.997 40.3692 133.729 39.9113C130.277 38.6561 128.553 36.8173 128.553 34.3993C128.553 32.8191 129.157 31.5234 130.367 30.5152C131.573 29.5055 133.182 29.0014 135.194 29.0014C136.988 29.0014 138.479 29.3062 139.668 29.9143L138.879 32.4248C137.767 31.8354 136.511 31.5408 135.105 31.5408C133.994 31.5408 133.126 31.808 132.504 32.3395C131.978 32.8148 131.714 33.394 131.714 34.0801C131.714 34.8399 132.015 35.4682 132.619 35.9622C133.145 36.4187 134.101 36.9127 135.487 37.4457C137.184 38.1115 138.43 38.8901 139.231 39.7828C140.03 40.6725 140.428 41.7862 140.428 43.1151Z" fill="white"/>
<path d="M150.871 36.956H147.39V43.6856C147.39 45.3973 148.003 46.2524 149.233 46.2524C149.797 46.2524 150.265 46.2047 150.636 46.1094L150.723 48.448C150.101 48.6748 149.281 48.7889 148.267 48.7889C147.019 48.7889 146.044 48.4176 145.341 47.6766C144.64 46.9342 144.287 45.6891 144.287 43.9399V36.9531H142.213V34.642H144.287V32.1041L147.39 31.1912V34.642H150.871V36.956Z" fill="white"/>
<path d="M166.579 41.4612C166.579 43.5918 165.954 45.341 164.707 46.7089C163.398 48.1172 161.662 48.8192 159.498 48.8192C157.412 48.8192 155.751 48.1446 154.513 46.7955C153.274 45.4464 152.655 43.7434 152.655 41.6909C152.655 39.543 153.292 37.7836 154.57 36.4158C155.846 35.0464 157.567 34.3618 159.732 34.3618C161.818 34.3618 163.496 35.0363 164.763 36.3869C165.975 37.697 166.579 39.3884 166.579 41.4612ZM163.302 41.5609C163.302 40.2825 163.022 39.1862 162.455 38.2719C161.793 37.1654 160.846 36.6136 159.619 36.6136C158.35 36.6136 157.385 37.1669 156.723 38.2719C156.156 39.1876 155.876 40.3013 155.876 41.6186C155.876 42.897 156.156 43.9933 156.723 44.9062C157.406 46.0126 158.36 46.5644 159.591 46.5644C160.797 46.5644 161.744 46.0011 162.427 44.8773C163.009 43.9456 163.302 42.8378 163.302 41.5609Z" fill="white"/>
<path d="M176.846 37.3532C176.533 37.2969 176.2 37.268 175.85 37.268C174.739 37.268 173.88 37.6768 173.276 38.4958C172.75 39.218 172.486 40.1309 172.486 41.233V48.5058H169.329L169.358 39.01C169.358 37.4124 169.318 35.9579 169.24 34.6463H171.991L172.107 37.2983H172.194C172.527 36.3869 173.053 35.6531 173.773 35.1028C174.477 34.6073 175.237 34.3603 176.056 34.3603C176.348 34.3603 176.612 34.3806 176.846 34.4167V37.3532Z" fill="white"/>
<path d="M190.972 40.9195C190.972 41.4713 190.935 41.9364 190.856 42.3163H181.381C181.418 43.6857 181.876 44.7329 182.756 45.4551C183.554 46.1008 184.587 46.4243 185.855 46.4243C187.258 46.4243 188.538 46.2062 189.689 45.7685L190.184 47.9063C188.839 48.4783 187.25 48.7629 185.418 48.7629C183.213 48.7629 181.483 48.1302 180.224 46.8663C178.967 45.6024 178.338 43.9052 178.338 41.7761C178.338 39.686 178.923 37.9454 180.095 36.5573C181.321 35.0753 182.979 34.3343 185.065 34.3343C187.114 34.3343 188.665 35.0753 189.718 36.5573C190.553 37.7345 190.972 39.1905 190.972 40.9195ZM187.96 40.1208C187.981 39.2079 187.775 38.4192 187.347 37.7533C186.8 36.8968 185.96 36.4692 184.83 36.4692C183.797 36.4692 182.957 36.8867 182.316 37.7244C181.79 38.3903 181.477 39.1891 181.381 40.1193H187.96V40.1208Z" fill="white"/>
</g>
<defs>
<filter id="filter0_d_122_1624" x="0" y="0" width="220" height="77.7778" filterUnits="userSpaceOnUse" color-interpolation-filters="sRGB">
<feFlood flood-opacity="0" result="BackgroundImageFix"/>
<feColorMatrix in="SourceAlpha" type="matrix" values="0 0 0 0 0 0 0 0 0 0 0 0 0 0 0 0 0 0 127 0" result="hardAlpha"/>
<feOffset dy="7"/>
<feGaussianBlur stdDeviation="5"/>
<feComposite in2="hardAlpha" operator="out"/>
<feColorMatrix type="matrix" values="0 0 0 0 0 0 0 0 0 0 0 0 0 0 0 0 0 0 0.25 0"/>
<feBlend mode="normal" in2="BackgroundImageFix" result="effect1_dropShadow_122_1624"/>
<feBlend mode="normal" in="SourceGraphic" in2="effect1_dropShadow_122_1624" result="shape"/>
</filter>
</defs>
</svg>
