<svg width="220" height="78" viewBox="0 0 220 78" fill="none" xmlns="http://www.w3.org/2000/svg">
<g filter="url(#filter0_d_122_1625)">
<path d="M202.593 60.7778H17.4074C13.3352 60.7778 10 57.526 10 53.5556V10.2223C10 6.25186 13.3352 3.00006 17.4074 3.00006H202.593C206.665 3.00006 210 6.25186 210 10.2223V53.5556C210 57.526 206.665 60.7778 202.593 60.7778Z" fill="black"/>
<path d="M202.593 4.15742C206.022 4.15742 208.813 6.87839 208.813 10.2223V53.5556C208.813 56.8995 206.022 59.6205 202.593 59.6205H17.4074C13.9778 59.6205 11.187 56.8995 11.187 53.5556V10.2223C11.187 6.87839 13.9778 4.15742 17.4074 4.15742H202.593ZM202.593 3.00006H17.4074C13.3352 3.00006 10 6.25186 10 10.2223V53.5556C10 57.526 13.3352 60.7778 17.4074 60.7778H202.593C206.665 60.7778 210 57.526 210 53.5556V10.2223C210 6.25186 206.665 3.00006 202.593 3.00006Z" fill="#A6A6A6"/>
<path d="M24.3482 13.8893C23.913 14.3335 23.6611 15.025 23.6611 15.9206V47.8645C23.6611 48.76 23.913 49.4516 24.3482 49.8957L24.4556 49.9932L42.8148 32.1002V31.6777L24.4556 13.7846L24.3482 13.8893Z" fill="white"/>
<path d="M51.15 38.0675L45.037 32.1002V31.6777L51.1574 25.7103L51.2944 25.788L58.5425 29.8089C60.6111 30.95 60.6111 32.8278 58.5425 33.9761L51.2944 37.9899L51.15 38.0675Z" fill="white"/>
<path d="M50.1833 39.101L43.9259 33.0001L25.4593 51.0069C26.1463 51.711 27.2667 51.7959 28.5407 51.0917L50.1833 39.101Z" fill="white"/>
<path d="M50.1833 24.6769L28.5407 12.6862C27.2667 11.9892 26.1463 12.0741 25.4593 12.7783L43.9259 30.7778L50.1833 24.6769Z" fill="white"/>
<path d="M80.2481 17.7966C80.2481 19.0027 79.8778 19.9687 79.1481 20.6891C78.3092 21.5431 77.2166 21.9728 75.8778 21.9728C74.5981 21.9728 73.5055 21.5359 72.6092 20.6746C71.7111 19.8007 71.2629 18.7282 71.2629 17.4445C71.2629 16.1607 71.7111 15.0882 72.6092 14.2216C73.5055 13.3531 74.5981 12.9162 75.8778 12.9162C76.5148 12.9162 77.1222 13.0443 77.7018 13.2827C78.2796 13.5228 78.75 13.8478 79.0907 14.2487L78.3166 15.0106C77.7222 14.3263 76.9129 13.9887 75.8778 13.9887C74.9444 13.9887 74.1352 14.3064 73.4481 14.9474C72.7685 15.5902 72.4278 16.4225 72.4278 17.4445C72.4278 18.4664 72.7685 19.306 73.4481 19.9488C74.1352 20.5825 74.9444 20.9075 75.8778 20.9075C76.8685 20.9075 77.7018 20.5825 78.3592 19.9416C78.7926 19.5173 79.0389 18.9323 79.1037 18.1848H75.8778V17.1412H80.1815C80.2333 17.3668 80.2481 17.5853 80.2481 17.7966Z" fill="white" stroke="white" stroke-width="0.16" stroke-miterlimit="10"/>
<path d="M87.0759 14.1782H83.0333V16.9227H86.6777V17.9663H83.0333V20.7107H87.0759V21.7742H81.8889V13.1148H87.0759V14.1782Z" fill="white" stroke="white" stroke-width="0.16" stroke-miterlimit="10"/>
<path d="M91.8944 21.7742H90.75V14.1782H88.2703V13.1148H94.3759V14.1782H91.8944V21.7742Z" fill="white" stroke="white" stroke-width="0.16" stroke-miterlimit="10"/>
<path d="M98.7944 21.7742V13.1148H99.937V21.7742H98.7944Z" fill="white" stroke="white" stroke-width="0.16" stroke-miterlimit="10"/>
<path d="M105.002 21.7742H103.867V14.1782H101.378V13.1148H107.491V14.1782H105.002V21.7742Z" fill="white" stroke="white" stroke-width="0.16" stroke-miterlimit="10"/>
<path d="M119.05 20.6602C118.174 21.5359 117.089 21.9728 115.794 21.9728C114.493 21.9728 113.407 21.5359 112.531 20.6602C111.657 19.7863 111.222 18.7138 111.222 17.4445C111.222 16.1752 111.657 15.1027 112.531 14.2288C113.407 13.3531 114.493 12.9162 115.794 12.9162C117.081 12.9162 118.167 13.3531 119.043 14.236C119.924 15.1171 120.359 16.1824 120.359 17.4445C120.359 18.7138 119.924 19.7863 119.05 20.6602ZM113.378 19.9343C114.037 20.5825 114.839 20.9075 115.794 20.9075C116.743 20.9075 117.552 20.5825 118.204 19.9343C118.861 19.2862 119.194 18.4538 119.194 17.4445C119.194 16.4352 118.861 15.6028 118.204 14.9546C117.552 14.3064 116.743 13.9814 115.794 13.9814C114.839 13.9814 114.037 14.3064 113.378 14.9546C112.72 15.6028 112.387 16.4352 112.387 17.4445C112.387 18.4538 112.72 19.2862 113.378 19.9343Z" fill="white" stroke="white" stroke-width="0.16" stroke-miterlimit="10"/>
<path d="M121.965 21.7742V13.1148H123.354L127.672 19.8495H127.722L127.672 18.1848V13.1148H128.815V21.7742H127.622L123.1 14.7073H123.05L123.1 16.3792V21.7742H121.965Z" fill="white" stroke="white" stroke-width="0.16" stroke-miterlimit="10"/>
<path d="M110.941 34.4204C107.461 34.4204 104.618 37.0023 104.618 40.5647C104.618 44.0981 107.461 46.7072 110.941 46.7072C114.428 46.7072 117.27 44.0981 117.27 40.5647C117.27 37.0023 114.428 34.4204 110.941 34.4204ZM110.941 44.2877C109.031 44.2877 107.389 42.7512 107.389 40.5647C107.389 38.3492 109.031 36.8398 110.941 36.8398C112.85 36.8398 114.5 38.3492 114.5 40.5647C114.5 42.7512 112.85 44.2877 110.941 44.2877ZM97.1463 34.4204C93.6592 34.4204 90.8241 37.0023 90.8241 40.5647C90.8241 44.0981 93.6592 46.7072 97.1463 46.7072C100.631 46.7072 103.468 44.0981 103.468 40.5647C103.468 37.0023 100.631 34.4204 97.1463 34.4204ZM97.1463 44.2877C95.2352 44.2877 93.587 42.7512 93.587 40.5647C93.587 38.3492 95.2352 36.8398 97.1463 36.8398C99.0555 36.8398 100.698 38.3492 100.698 40.5647C100.698 42.7512 99.0555 44.2877 97.1463 44.2877ZM80.7315 36.3036V38.9144H87.1259C86.9389 40.3733 86.4389 41.4458 85.6722 42.1933C84.7389 43.096 83.2852 44.0981 80.7315 44.0981C76.7963 44.0981 73.7148 41.0016 73.7148 37.1648C73.7148 33.328 76.7963 30.2315 80.7315 30.2315C82.8592 30.2315 84.4074 31.0422 85.55 32.093L87.437 30.2531C85.8389 28.7654 83.7129 27.6224 80.7315 27.6224C75.3352 27.6224 70.8 31.9034 70.8 37.1648C70.8 42.4262 75.3352 46.7072 80.7315 46.7072C83.6481 46.7072 85.8389 45.7755 87.5611 44.0277C89.3259 42.307 89.8759 39.8876 89.8759 37.934C89.8759 37.3273 89.8241 36.7694 89.7315 36.3036H80.7315ZM147.854 38.3276C147.333 36.9535 145.728 34.4204 142.457 34.4204C139.217 34.4204 136.518 36.9102 136.518 40.5647C136.518 44.006 139.189 46.7072 142.768 46.7072C145.663 46.7072 147.333 44.9865 148.02 43.9844L145.872 42.5887C145.156 43.6106 144.18 44.2877 142.768 44.2877C141.367 44.2877 140.361 43.6612 139.717 42.4262L148.144 39.0263L147.854 38.3276ZM139.261 40.3733C139.189 38.0044 141.148 36.7911 142.552 36.7911C143.652 36.7911 144.585 37.3273 144.896 38.0947L139.261 40.3733ZM132.411 46.3334H135.181V28.2779H132.411V46.3334ZM127.874 35.789H127.781C127.159 35.0704 125.972 34.4204 124.468 34.4204C121.313 34.4204 118.428 37.1215 118.428 40.5845C118.428 44.0277 121.313 46.7072 124.468 46.7072C125.972 46.7072 127.159 46.0517 127.781 45.3115H127.874V46.1926C127.874 48.5416 126.587 49.8037 124.511 49.8037C122.818 49.8037 121.768 48.612 121.335 47.6099L118.926 48.5904C119.62 50.219 121.459 52.2231 124.511 52.2231C127.759 52.2231 130.5 50.3598 130.5 45.826V34.7941H127.874V35.789ZM124.706 44.2877C122.796 44.2877 121.198 42.7295 121.198 40.5845C121.198 38.4197 122.796 36.8398 124.706 36.8398C126.587 36.8398 128.07 38.4197 128.07 40.5845C128.07 42.7295 126.587 44.2877 124.706 44.2877ZM160.824 28.2779H154.198V46.3334H156.961V39.4922H160.824C163.893 39.4922 166.902 37.3273 166.902 33.8841C166.902 30.4427 163.885 28.2779 160.824 28.2779ZM160.896 36.9806H156.961V30.7894H160.896C162.959 30.7894 164.137 32.4595 164.137 33.8841C164.137 35.2816 162.959 36.9806 160.896 36.9806ZM177.976 34.386C175.98 34.386 173.904 35.2455 173.05 37.1504L175.502 38.1524C176.03 37.1504 177 36.8254 178.026 36.8254C179.459 36.8254 180.913 37.6649 180.935 39.1473V39.3369C180.435 39.0552 179.365 38.6381 178.048 38.6381C175.407 38.6381 172.717 40.0555 172.717 42.7006C172.717 45.1201 174.88 46.6783 177.311 46.6783C179.17 46.6783 180.196 45.8604 180.841 44.9088H180.935V46.3045H183.604V39.3784C183.604 36.1772 181.152 34.386 177.976 34.386ZM177.643 44.2805C176.739 44.2805 175.48 43.8435 175.48 42.7512C175.48 41.3537 177.05 40.8174 178.409 40.8174C179.626 40.8174 180.196 41.0792 180.935 41.4241C180.718 43.096 179.243 44.2805 177.643 44.2805ZM193.326 34.7815L190.15 42.6085H190.056L186.772 34.7815H183.793L188.726 45.7195L185.911 51.806H188.798L196.4 34.7815H193.326ZM168.42 46.3334H171.191V28.2779H168.42V46.3334Z" fill="white"/>
</g>
<defs>
<filter id="filter0_d_122_1625" x="0" y="6.10352e-05" width="220" height="77.7778" filterUnits="userSpaceOnUse" color-interpolation-filters="sRGB">
<feFlood flood-opacity="0" result="BackgroundImageFix"/>
<feColorMatrix in="SourceAlpha" type="matrix" values="0 0 0 0 0 0 0 0 0 0 0 0 0 0 0 0 0 0 127 0" result="hardAlpha"/>
<feOffset dy="7"/>
<feGaussianBlur stdDeviation="5"/>
<feComposite in2="hardAlpha" operator="out"/>
<feColorMatrix type="matrix" values="0 0 0 0 0 0 0 0 0 0 0 0 0 0 0 0 0 0 0.25 0"/>
<feBlend mode="normal" in2="BackgroundImageFix" result="effect1_dropShadow_122_1625"/>
<feBlend mode="normal" in="SourceGraphic" in2="effect1_dropShadow_122_1625" result="shape"/>
</filter>
</defs>
</svg>
