<svg width="97" height="79" viewBox="0 0 97 79" fill="none" xmlns="http://www.w3.org/2000/svg">
<path fill-rule="evenodd" clip-rule="evenodd" d="M0.867573 0.724359C0.745573 1.04436 1.35057 3.51936 2.21257 6.22436C3.07457 8.92936 4.25557 12.6724 4.83757 14.5424C5.42057 16.4124 6.21957 18.9324 6.61457 20.1424C7.00957 21.3524 7.80257 23.8724 8.37557 25.7424C8.94857 27.6124 9.88657 30.6724 10.4596 32.5424C11.0326 34.4124 11.8256 36.9324 12.2216 38.1424C12.6176 39.3524 13.4286 41.9624 14.0246 43.9424C14.6196 45.9224 15.5176 48.8024 16.0196 50.3424C16.5216 51.8824 17.3746 54.5824 17.9146 56.3424C19.1496 60.3684 22.3566 70.5294 23.7216 74.7424C25.1846 79.2604 24.5576 78.9424 32.0116 78.9424H38.5186L39.1626 77.3344C39.5156 76.4494 39.8056 75.4524 39.8056 75.1184C39.8056 74.7834 40.1446 73.3924 40.5576 72.0264C40.9716 70.6604 41.7936 67.6524 42.3836 65.3424C42.9736 63.0324 43.9106 59.4324 44.4656 57.3424C45.0206 55.2524 45.9256 51.8324 46.4766 49.7424C47.0276 47.6524 47.8046 44.7724 48.2046 43.3424C48.6036 41.9124 49.2486 39.3284 49.6376 37.6004C51.1016 31.0984 51.5406 31.4814 54.1636 41.5424C56.2136 49.4014 58.7516 58.8624 59.6906 62.1424C60.0366 63.3524 60.6406 65.6024 61.0316 67.1424C64.2616 79.8524 63.7586 78.9434 67.5546 78.9384C75.8496 78.9254 78.7246 76.0954 82.3816 64.3424C82.9976 62.3624 83.9296 59.5684 84.4536 58.1344C84.9776 56.6994 85.4056 55.3394 85.4056 55.1114C85.4056 54.8834 86.6466 50.9274 88.1646 46.3194C89.6816 41.7124 91.8436 35.0624 92.9696 31.5424C94.0956 28.0224 95.4726 23.7824 96.0286 22.1204C97.4016 18.0204 97.2186 17.6684 93.8606 17.9584C86.1786 18.6224 84.0716 20.6544 81.0126 30.3424C80.3186 32.5424 79.4856 35.1674 79.1616 36.1764C78.8376 37.1844 78.1456 39.6144 77.6246 41.5764C77.1026 43.5374 76.3756 46.1324 76.0096 47.3424C75.6436 48.5524 74.9946 50.8024 74.5696 52.3424C72.4146 60.1334 71.0786 64.1424 70.6366 64.1424C69.9566 64.1424 68.7686 59.9874 64.9726 44.3424C64.0346 40.4794 62.8526 35.9454 61.5636 31.2674C61.0366 29.3554 60.6056 27.5174 60.6056 27.1824C60.6056 22.1704 56.2246 18.3024 50.0536 17.8664C44.6726 17.4874 44.9546 17.2484 43.2376 23.6364C41.1446 31.4174 39.9976 35.7394 38.8046 40.3424C38.2336 42.5424 37.4386 45.5124 37.0366 46.9424C36.6346 48.3724 35.8216 51.4324 35.2296 53.7424C34.6376 56.0524 33.8756 59.0224 33.5346 60.3424C32.1306 65.7914 31.7496 65.6094 29.7776 58.5424C29.3176 56.8924 28.6946 54.7324 28.3936 53.7424C27.6336 51.2394 24.9926 42.1144 24.7476 41.1424C24.6366 40.7024 24.1136 38.9024 23.5846 37.1424C22.2116 32.5684 20.8026 27.7234 19.5706 23.3424C18.9836 21.2524 18.1816 18.5524 17.7886 17.3424C17.3946 16.1324 16.7706 14.0654 16.4016 12.7494C14.8306 7.15637 12.5536 3.54937 9.65557 2.05937C6.57857 0.478365 1.27157 -0.327641 0.867573 0.724359Z" fill="#053272"/>
<path fill-rule="evenodd" clip-rule="evenodd" d="M0.867573 0.724359C0.745573 1.04436 1.35057 3.51936 2.21257 6.22436C3.07457 8.92936 4.25557 12.6724 4.83757 14.5424C5.42057 16.4124 6.21957 18.9324 6.61457 20.1424C7.00957 21.3524 7.80257 23.8724 8.37557 25.7424C8.94857 27.6124 9.88657 30.6724 10.4596 32.5424C11.0326 34.4124 11.8256 36.9324 12.2216 38.1424C12.6176 39.3524 13.4286 41.9624 14.0246 43.9424C14.6196 45.9224 15.5176 48.8024 16.0196 50.3424C16.5216 51.8824 17.3746 54.5824 17.9146 56.3424C19.1496 60.3684 22.3566 70.5294 23.7216 74.7424C25.1846 79.2604 24.5576 78.9424 32.0116 78.9424H38.5186L39.1626 77.3344C39.5156 76.4494 39.8056 75.4524 39.8056 75.1184C39.8056 74.7834 40.1446 73.3924 40.5576 72.0264C40.9716 70.6604 41.7936 67.6524 42.3836 65.3424C42.9736 63.0324 43.9106 59.4324 44.4656 57.3424C45.0206 55.2524 45.9256 51.8324 46.4766 49.7424C47.0276 47.6524 47.8046 44.7724 48.2046 43.3424C48.6036 41.9124 49.2486 39.3284 49.6376 37.6004C51.1016 31.0984 51.5406 31.4814 54.1636 41.5424C56.2136 49.4014 58.7516 58.8624 59.6906 62.1424C60.0366 63.3524 60.6406 65.6024 61.0316 67.1424C64.2616 79.8524 63.7586 78.9434 67.5546 78.9384C75.8496 78.9254 78.7246 76.0954 82.3816 64.3424C82.9976 62.3624 83.9296 59.5684 84.4536 58.1344C84.9776 56.6994 85.4056 55.3394 85.4056 55.1114C85.4056 54.8834 86.6466 50.9274 88.1646 46.3194C89.6816 41.7124 91.8436 35.0624 92.9696 31.5424C94.0956 28.0224 95.4726 23.7824 96.0286 22.1204C97.4016 18.0204 97.2186 17.6684 93.8606 17.9584C86.1786 18.6224 84.0716 20.6544 81.0126 30.3424C80.3186 32.5424 79.4856 35.1674 79.1616 36.1764C78.8376 37.1844 78.1456 39.6144 77.6246 41.5764C77.1026 43.5374 76.3756 46.1324 76.0096 47.3424C75.6436 48.5524 74.9946 50.8024 74.5696 52.3424C72.4146 60.1334 71.0786 64.1424 70.6366 64.1424C69.9566 64.1424 68.7686 59.9874 64.9726 44.3424C64.0346 40.4794 62.8526 35.9454 61.5636 31.2674C61.0366 29.3554 60.6056 27.5174 60.6056 27.1824C60.6056 22.1704 56.2246 18.3024 50.0536 17.8664C44.6726 17.4874 44.9546 17.2484 43.2376 23.6364C41.1446 31.4174 39.9976 35.7394 38.8046 40.3424C38.2336 42.5424 37.4386 45.5124 37.0366 46.9424C36.6346 48.3724 35.8216 51.4324 35.2296 53.7424C34.6376 56.0524 33.8756 59.0224 33.5346 60.3424C32.1306 65.7914 31.7496 65.6094 29.7776 58.5424C29.3176 56.8924 28.6946 54.7324 28.3936 53.7424C27.6336 51.2394 24.9926 42.1144 24.7476 41.1424C24.6366 40.7024 24.1136 38.9024 23.5846 37.1424C22.2116 32.5684 20.8026 27.7234 19.5706 23.3424C18.9836 21.2524 18.1816 18.5524 17.7886 17.3424C17.3946 16.1324 16.7706 14.0654 16.4016 12.7494C14.8306 7.15637 12.5536 3.54937 9.65557 2.05937C6.57857 0.478365 1.27157 -0.327641 0.867573 0.724359Z" fill="#053272"/>
</svg>
